<svg width="25" height="25" viewBox="0 0 25 25" fill="none" xmlns="http://www.w3.org/2000/svg">
<path fill-rule="evenodd" clip-rule="evenodd" d="M4.16668 2.08333H20.8333C21.9839 2.08333 22.9167 3.01607 22.9167 4.16666V8.33333C22.9167 9.48392 21.9839 10.4167 20.8333 10.4167H4.16668C3.01608 10.4167 2.08334 9.48392 2.08334 8.33333V4.16666C2.08334 3.01607 3.01608 2.08333 4.16668 2.08333ZM4.16668 4.16666V8.33333H20.8333V4.16666H4.16668ZM22.9167 16.6667V18.75H2.08334V16.6667H22.9167ZM22.9167 20.8333V22.9167H2.08334V20.8333H22.9167Z" fill="#97AACD"/>
<path d="M22.9167 18.75V16.6667H2.08334V18.75H22.9167Z" fill="#97AACD"/>
<path fill-rule="evenodd" clip-rule="evenodd" d="M22.9167 12.5V14.5833H2.08334V12.5H22.9167Z" fill="#97AACD"/>
</svg>
