<svg width="26" height="25" viewBox="0 0 26 25" fill="none" xmlns="http://www.w3.org/2000/svg">
<path fill-rule="evenodd" clip-rule="evenodd" d="M4.66668 16.2352L8.83334 12.0685L12.4792 15.7144L19.25 8.94354L21.3333 11.0269V4.16668H4.66668V16.2352ZM4.66668 19.1815V20.8333H14.6519L8.83334 15.0148L4.66668 19.1815ZM17.5982 20.8333H21.3333V13.9732L19.25 11.8898L13.9523 17.1875L17.5982 20.8333ZM4.66668 2.08334H21.3333C22.4839 2.08334 23.4167 3.01608 23.4167 4.16668V20.8333C23.4167 21.9839 22.4839 22.9167 21.3333 22.9167H4.66668C3.51608 22.9167 2.58334 21.9839 2.58334 20.8333V4.16668C2.58334 3.01608 3.51608 2.08334 4.66668 2.08334ZM11.9583 5.20834C13.6842 5.20834 15.0833 6.60745 15.0833 8.33334C15.0833 10.0592 13.6842 11.4583 11.9583 11.4583C10.2325 11.4583 8.83334 10.0592 8.83334 8.33334C8.83334 6.60745 10.2325 5.20834 11.9583 5.20834ZM11.9583 7.29168C11.383 7.29168 10.9167 7.75805 10.9167 8.33334C10.9167 8.90864 11.383 9.37501 11.9583 9.37501C12.5336 9.37501 13 8.90864 13 8.33334C13 7.75805 12.5336 7.29168 11.9583 7.29168Z" fill="#97AACD"/>
</svg>
